<svg width="59" height="10" viewBox="0 0 61 10" fill="none" xmlns="http://www.w3.org/2000/svg"><g opacity=".5" fill-rule="evenodd" clip-rule="evenodd"><path d="M59.93 7.53C59.57 9.47 58.5 10 57.3 10h-7.78l1.07-5.82C51 1.9 52.32 1.7 53.52 1.7H61l-1.07 5.82Z" fill="#E52031"/><path d="m56.57 4.98-.83-.87a.67.67 0 0 1 0-.91.58.58 0 0 1 .86 0l1.77 1.87a.7.7 0 0 1 0 .92L55.7 8.75a.57.57 0 0 1-.86 0 .67.67 0 0 1 0-.91l1.82-1.87.17-.18c.22-.22.2-.32-.02-.55l-.23-.26Z" fill="#fff"/><path d="m53.83 4.98-.82-.87a.67.67 0 0 1 0-.91.58.58 0 0 1 .86 0l1.76 1.87a.7.7 0 0 1 0 .92l-2.68 2.76a.57.57 0 0 1-.86 0 .67.67 0 0 1 0-.91l1.83-1.87.17-.18c.21-.22.18-.32-.03-.55l-.23-.26Z" fill="#fff"/><path d="M8.92.5h-.45L8.54.1h1.23L9.71.5h-.45L9 1.94h-.34L8.92.49ZM10.43 1.18l-.04-.4-.02-.37c-.05.1-.1.25-.14.37l-.16.4h.36Zm-.46.3-.2.46H9.4L10.2.1h.44l.2 1.83h-.38l-.03-.46h-.46ZM11.53.95h.15c.2 0 .33-.14.33-.32 0-.14-.11-.2-.26-.2h-.13l-.09.52Zm-.25-.9c.11-.03.28-.05.46-.05.15 0 .32.02.45.1.11.08.19.2.19.38 0 .29-.18.47-.4.55.1.06.15.18.17.36.02.22.04.47.07.55h-.38a3 3 0 0 1-.05-.46c-.02-.23-.09-.3-.23-.3h-.12l-.13.76h-.36l.33-1.9ZM13.12.11h.35l-.2 1.23c-.08.46-.27.65-.64.65a.91.91 0 0 1-.27-.03l.06-.35c.05.02.12.04.2.04.16 0 .25-.08.3-.36l.2-1.18ZM14.5 1.18h-.6l-.07.38h.66l-.06.38H13.4L13.72.1h.99l-.06.38h-.63l-.07.38h.6l-.06.3ZM15.32.5h-.43l.06-.39h1.23l-.06.38h-.45l-.25 1.45h-.34l.24-1.45ZM16.78 1.18l-.02-.4-.03-.36c-.05.1-.1.25-.14.36l-.16.4h.35Zm-.45.3-.19.46h-.37L16.55.1h.46l.19 1.83h-.38l-.03-.46h-.46ZM0 10l.3-1.68h3.04c1.5 0 1.78-.23 1.99-1.36.26-1.39-.43-1.2-1.71-1.28C1.77 5.55.45 5.63.99 2.8 1.49.14 2.8.11 4.89.11h2.57l-.28 1.6H4.63c-1.66 0-1.97.1-2.16 1.14-.22 1.2-.01 1.23 1.66 1.34 2.65.19 3.2.35 2.73 2.82C6.34 9.76 5.29 10 3.04 10H0ZM8.25 3l-.94 5.08C7.04 9.58 7.76 10 9 10h1.94c1.46 0 1.8-1.68 1.85-1.94l.63-3.47.3-1.59h-1.48l-.55 3.04-.3 1.5s-.1.86-.77.86h-.93c-.56 0-.9-.2-.77-.86L9.75 3h-1.5ZM13.68 6.67c.6-3.13 1.3-3.67 3.87-3.67h2.07l-.28 1.6h-1.92c-1.66 0-1.87.24-2.22 2.1l-.04.27c-.13 1.2.19 1.35 1.62 1.35h1.88L18.34 10h-1.88c-2.75.05-3.14-.68-2.84-2.95l.06-.38ZM22.01 4.6c-.3 0-.4.08-.47.43l-.13.76-.78 4.2h-1.5l1.03-5.53c.14-.9.56-1.46 1.44-1.46H24l-.27 1.6H22ZM37.63 10h-1.49l1.28-7h1.5l-1.29 7ZM39.04 2.47H37.5l.2-1.07h1.53l-.2 1.07ZM44.38 6.5c-.32 1.73.22 1.88.97 1.88 1 0 1.4.08 1.74-1.73.35-1.85.07-2.14-.97-2.14-1.2 0-1.4.2-1.74 1.99Zm4.23-.02c-.5 2.63-1.04 3.5-3.57 3.5-2.2 0-2.65-.87-2.15-3.5.5-2.65.93-3.5 3.47-3.5s2.75.85 2.25 3.5ZM34.19 7.5c-.25.74-.7.85-1.61.85-1.3 0-1.18-.6-.91-1.96.3-1.6.46-1.9 1.76-1.9.9 0 1.23.12 1.15.88-.02.33-.39 2.12-.39 2.12M35.44.72l-.45 2.43a5.26 5.26 0 0 0-1.33-.18c-2.54 0-3.02.85-3.52 3.5-.5 2.63-.34 3.48 2.2 3.48.55 0 1-.04 1.37-.13 1.19-.27 1.74-1.03 2.01-2.54l.33-1.72.89-4.84h-1.5ZM25.7 4.87c.32-.4.9-.4 1.56-.4.38 0 .7.04.86.23.12.15.08.4.04.64l-.08.4h-2.65s.1-.65.27-.87Zm.49 3.44c-.98 0-1.16-.34-1.1-.85l.1-.43h4.08l.4-2.14c.2-1.1-.56-1.8-1.62-1.89-.32-.04-1.4-.03-1.64.01-1.76.23-2.24 1.31-2.64 3.45-.5 2.63-.18 3.46 2.15 3.46h2.8l.3-1.6h-2.83ZM27.4 2.47l1.2-1.24c.21-.2.52-.17.7.07.18.24.16.6-.06.8l-.81.37h-1.04ZM42.73 4.6h-.9l-.99 5.32h-1.46l.98-5.32h-.92l.3-1.6h.88l.3-1.6h1.5L42.15 3h.9l-.31 1.6Z" fill="#1C1C1C"/></g></svg>