<svg width="38" height="24" viewBox="0 0 38 24" fill="none" xmlns="http://www.w3.org/2000/svg">
<path opacity="0.07" d="M34.73 0H3.09611C1.41556 0 0.130432 1.3 0.130432 3V21C0.130432 22.7 1.51441 24 3.09611 24H34.73C36.4105 24 37.6956 22.7 37.6956 21V3C37.6956 1.3 36.3117 0 34.73 0Z" fill="black"/>
<path d="M34.7299 1.00018C35.8173 1.00018 36.707 1.90018 36.707 3.00018V21.0002C36.707 22.1002 35.8173 23.0002 34.7299 23.0002H3.09606C2.00865 23.0002 1.11895 22.1002 1.11895 21.0002V3.00018C1.11895 1.90018 2.00865 1.00018 3.09606 1.00018H34.7299Z" fill="#006FCF"/>
<path d="M9.1868 10.0853L9.94701 11.9279H8.43248L9.1868 10.0853ZM24.9755 10.1619H22.0515V10.9741H24.9283V12.1911H22.0574V13.0967H24.9814V13.8225L27.0214 11.6175L24.9814 9.31916L24.9755 10.1619ZM11.163 7.86356H15.0868L15.958 9.76409L16.7654 7.85767H26.9506L28.0094 9.02647L29.1046 7.85767H33.7827L30.3264 11.6411L33.7474 15.4009H28.9995L27.9407 14.2321L26.8357 15.4009H10.2269L9.74173 14.2321H8.63186L8.14568 15.4009H4.30435L7.53181 7.85767H10.9007L11.163 7.86356ZM19.6716 8.92236H17.4725L15.9992 12.3954L14.4032 8.92236H12.2208V13.6467L10.1975 8.92236H8.23997L5.9004 14.3362H7.4277L7.9129 13.1674H10.4627L10.9479 14.3362H13.6194V10.4713L15.3392 14.3421H16.508L18.217 10.4831V14.343H19.6491L19.6726 8.92138L19.6716 8.92236ZM28.8453 11.6411L31.3312 8.92236H29.5416L27.9692 10.6176L26.4487 8.92236H20.6597V14.3421H26.3662L27.9515 12.635L29.4719 14.3421H31.3135L28.8453 11.6411Z" fill="white"/>
</svg>
