<svg width="51" height="20" fill="none" xmlns="http://www.w3.org/2000/svg"><path d="M12.95 9.5v4.58c0 .77-.2 1.5-.51 2.18a6.5 6.5 0 0 1-5.23 3.68 7 7 0 0 1-4.05-.74 5.72 5.72 0 0 1-2.83-3.3C.1 15.22 0 14.5 0 13.78V4.91c0-.1 0-.22.05-.32.09-.22.35-.37.56-.34.26.05.45.26.47.53v9.12a4.76 4.76 0 0 0 3.64 4.78c1.28.35 2.57.33 3.83-.13a4.83 4.83 0 0 0 2.98-2.86c.25-.62.35-1.27.35-1.94V4.78c0-.3.17-.51.46-.58.29-.07.59.14.61.42V9.5ZM51 16.88v2.55c0 .39-.39.63-.75.5-.2-.08-.3-.23-.32-.43v-4.76c-.01-.66-.12-1.3-.41-1.9a4.07 4.07 0 0 0-2.5-2.16 4.56 4.56 0 0 0-3.33.13 4.07 4.07 0 0 0-2.32 2.42 4.06 4.06 0 0 0 .97 4.41c.7.75 1.6 1.15 2.65 1.26.8.09 1.57-.01 2.3-.35.4-.18.77-.43 1.1-.74.2-.19.43-.22.67-.1.23.1.36.32.3.58a.64.64 0 0 1-.18.33 5.25 5.25 0 0 1-2.83 1.32 5.53 5.53 0 0 1-4.27-1.08 5.12 5.12 0 0 1-1.98-3.25 5.33 5.33 0 0 1 3.23-5.83c.83-.36 1.71-.5 2.62-.43a5.32 5.32 0 0 1 5.05 5.4v2.13ZM28.45 14.66a5.31 5.31 0 0 1 3.6-5 5.36 5.36 0 0 1 2.05-.34 5.3 5.3 0 0 1 4.6 2.77c.15.27.07.57-.18.7-.28.16-.59.1-.76-.19a4.33 4.33 0 0 0-4.35-2.16c-.96.1-1.8.45-2.5 1.08a4 4 0 0 0-1.36 2.67c-.1 1.04.1 2 .68 2.87a4 4 0 0 0 2.75 1.75c1.22.2 2.4.08 3.45-.61.62-.41 1.04-.99 1.37-1.63l.05-.1c.17-.33.44-.45.71-.33.3.12.42.45.27.77a5.2 5.2 0 0 1-4.25 3.03 5.56 5.56 0 0 1-3.95-.96 5.01 5.01 0 0 1-2.11-3.38c-.03-.13-.06-.26-.07-.4v-.54ZM23.8 16.5v2.88c0 .24-.08.43-.3.53a.54.54 0 0 1-.77-.45v-.17c0-1.8.01-3.6-.01-5.41a3.34 3.34 0 0 0-1.1-2.53 3.62 3.62 0 0 0-2.08-.9c-.8-.1-1.56-.01-2.29.33a3.3 3.3 0 0 0-1.93 2.48c-.05.27-.07.56-.07.85v5.28c0 .44-.4.71-.8.54-.21-.1-.3-.27-.3-.49v-.79c0-1.58-.02-3.17 0-4.75a4.58 4.58 0 0 1 4.17-4.55 4.98 4.98 0 0 1 3.4.73 4.43 4.43 0 0 1 2 2.98c.06.34.07.7.08 1.04v2.4ZM26.66 14.6v4.76c0 .25-.1.45-.33.56a.5.5 0 0 1-.7-.25 1.1 1.1 0 0 1-.07-.38v-9.4c0-.34.13-.54.4-.61.35-.1.69.15.7.49v4.84ZM4.94 3.17l1.16-.5a3 3 0 0 0 1.1-.78c.24-.3.37-.62.38-1 0-.36.16-.67.53-.83.42-.18.9.06.99.5.1.45-.04.85-.3 1.2A3.96 3.96 0 0 1 5.7 3.2h-.76v-.02ZM26.94 6.87c0 .38-.35.75-.75.73a.78.78 0 0 1-.77-.76c-.02-.35.36-.68.76-.68.44 0 .76.3.76.7Z" opacity=".5" fill="#31509F"/></svg>